Coordinates
version=1
nRows=14
nColumns=36
inDegrees=yes

Units are S.I. units (second, meters, Newtons, ...)
If the header above contains a line with 'inDegrees', this indicates whether rotational values are in degrees (yes) or radians (no).

endheader
time	pelvis_tilt	pelvis_list	pelvis_rotation	pelvis_tx	pelvis_ty	pelvis_tz	hip_flexion_r	hip_adduction_r	hip_rotation_r	knee_angle_r	knee_angle_r_beta	ankle_angle_r	subtalar_angle_r	mtp_angle_r	hip_flexion_l	hip_adduction_l	hip_rotation_l	knee_angle_l	knee_angle_l_beta	ankle_angle_l	subtalar_angle_l	mtp_angle_l	lumbar_extension	lumbar_bending	lumbar_rotation	arm_flex_r	arm_add_r	arm_rot_r	elbow_flex_r	pro_sup_r	arm_flex_l	arm_add_l	arm_rot_l	elbow_flex_l	pro_sup_l
      5.07083330	     -9.90973115	      3.17469363	     -0.42260438	      0.39500151	      1.08370872	      0.01367301	     21.67893061	    -12.64408280	    -26.69413710	     14.99561477	      0.26172285	    -18.76627609	     -1.36986856	     -7.49999987	     26.81787065	     -9.93701677	    -23.08412254	     26.64146526	      0.46498129	    -31.92628600	    -13.60722858	     -7.49999987	    -27.42507723	     -2.76629842	     -5.68555963	    356.37209521	    -13.77884867	    359.12459762	     75.20800412	     80.61113620	   -191.26463961	   -148.24743912	   -164.55980944	     85.63088973	     75.73702567
      5.07500000	     -9.75089385	      2.91304946	     -0.48410575	      0.39677632	      1.07437645	      0.00961250	     21.60947956	    -12.48939701	    -25.53271461	     16.40942829	      0.28639855	    -14.12630307	     -1.65593980	     -7.49999987	     26.94916546	    -10.21259128	    -23.28964182	     27.83203682	      0.48576068	    -29.18998813	    -14.42990907	     -7.49999987	    -27.79922059	     -2.33884590	     -5.31853994	    356.34464252	    -14.07907059	    358.78743476	     75.90569578	     80.25445694	   -190.54541583	   -148.53702220	   -164.36841456	     85.62828602	     75.42807176
      5.07916670	     -9.23141122	      2.51276345	     -0.62972605	      0.39916458	      1.06058083	      0.00903913	     21.41675134	    -12.24192053	    -25.03041789	     18.74988576	      0.32724724	     -8.31566662	     -2.88970231	     -7.49999987	     26.63096758	    -10.70527890	    -23.73044698	     29.31170324	      0.51158573	    -24.65706261	    -15.24509717	     -7.49999987	    -28.39410624	     -1.84314771	     -5.21276821	    356.64557253	    -14.46806127	    358.43524801	     76.40313121	     84.54896247	   -190.47489221	   -148.81894329	   -165.07003381	     85.94948718	     79.14592962
      5.08333330	     -8.63917395	      2.12170685	     -0.63315624	      0.40089803	      1.04318484	      0.01000327	     21.18907811	    -11.93657685	    -24.38215588	     21.44317147	      0.37425394	     -1.71006467	     -4.84024664	     -7.49999987	     26.61555204	    -11.40876854	    -24.18285125	     31.87001316	      0.55623666	    -19.83059621	    -17.60563005	     -7.49999987	    -28.70244203	     -1.45422727	     -4.62260930	    356.28545811	    -14.85536014	    358.09660449	     76.97680368	     82.26311114	   -189.70128806	   -148.62214736	   -164.29346304	     85.99446246	     77.33688088
      5.08750000	     -8.50231095	      1.57588671	     -0.58622923	      0.39282099	      1.03013220	      0.01340061	     22.04889719	    -11.36944964	    -23.48637740	     24.24945520	      0.42323284	      4.56974311	     -6.19486687	     -7.49999987	     27.79853549	    -12.39087411	    -23.79696415	     35.19100622	      0.61419893	    -14.63340640	    -19.04847145	     -7.49999987	    -29.18537863	     -1.11658978	     -5.14117070	    356.85261146	    -15.22988522	    358.73841305	     77.63112478	     84.04707748	   -190.68355335	   -148.47387972	   -166.15223686	     87.58522538	     79.17457076
      5.09166670	     -8.47366527	      1.07998090	     -0.61614791	      0.38901771	      1.01816744	      0.01469798	     23.11146944	    -10.72196418	    -22.35449996	     26.65121578	      0.46515147	      9.48226006	     -7.88529975	     -7.49999987	     29.10890456	    -13.34842108	    -23.57249620	     38.26193150	      0.66779668	    -10.07558629	    -20.95332599	     -7.49999987	    -29.57566197	     -0.81537176	     -5.07398582	    357.17535091	    -15.45392368	    358.87583680	     78.42651178	     84.60107248	   -190.77807484	   -148.14876858	   -166.87404546	     88.76313019	     80.30298978
      5.09583330	     -8.75675309	      0.47639471	     -0.66508017	      0.38862368	      1.00671036	      0.01939783	     24.51046491	     -9.77668421	    -21.36948524	     28.80358264	      0.50271735	     13.27863273	     -9.57785623	     -7.49999987	     30.37134145	    -14.42399151	    -23.12928444	     40.53711785	      0.70750618	     -6.01675798	    -21.69313499	     -7.49999987	    -29.74395049	     -0.52487536	     -4.47111902	    356.97460609	    -15.45192931	    358.54469784	     79.53397966	     82.91437124	   -190.21620920	   -147.60385554	   -166.65378206	     89.69527489	     79.01233752
      5.10000000	     -9.08727162	     -0.11050826	     -0.78729392	      0.38332792	      0.99584697	      0.02103009	     26.26603856	     -8.90010193	    -20.41436495	     31.05739821	      0.54205386	     15.67415403	    -11.27251982	     -7.49999987	     31.93528768	    -15.52460170	    -22.53573582	     42.77282204	      0.74652657	     -2.71870953	    -22.78675165	     -7.49999987	    -29.95719227	     -0.39056747	     -4.01174036	    357.41462669	    -15.42963149	    358.47755495	     79.80245230	     82.71180412	   -189.57543598	   -147.07088252	   -166.69514105	     90.56614081	     78.91189713
      5.10416670	     -9.43516769	     -0.45357245	     -1.19143977	      0.38230369	      0.98719777	      0.01556095	     28.27613099	     -8.61505786	    -19.40426224	     33.76960630	      0.58939082	     16.96622850	    -13.55772166	     -7.49999987	     32.87673696	    -15.96430660	    -22.23574472	     44.11266384	      0.76991123	      0.69167650	    -23.10739594	     -7.49999987	    -30.11829077	     -0.13232261	     -3.89923700	    358.37402947	    -15.65094761	    358.70755093	     79.88859873	     85.54719267	   -189.50698632	   -147.21536822	   -167.73169118	     91.05308919	     82.19173539
      5.10833330	     -9.86345444	     -0.89271517	     -1.50250328	      0.37787651	      0.97428826	      0.01751005	     31.06087813	     -8.51691101	    -18.83825708	     37.49275981	      0.65437210	     18.23770986	    -14.82022888	     -7.49999987	     34.29182596	    -16.65299846	    -21.64104209	     45.75817303	      0.79863078	      3.72139896	    -23.33151566	     -7.49999987	    -30.08628220	      0.33935980	     -3.05727567	    358.67865880	    -15.44538357	    357.53369000	     79.98978449	     82.41949183	   -187.90475986	   -147.34470797	   -166.79512949	     90.19532774	     79.44287650
      5.11250000	    -10.01727581	     -1.26850069	     -1.67815260	      0.37639768	      0.96739951	      0.01978464	     33.51754473	     -8.22878291	    -17.67738886	     41.16281304	      0.71842662	     18.57658264	    -17.55485868	     -7.49999987	     35.39183725	    -17.23679925	    -20.95123449	     47.37725215	      0.82688904	      5.39496725	    -24.26382213	     -7.49999987	    -31.14007064	      0.61355718	     -2.81439961	    359.33184130	    -15.65952019	    357.81283937	     81.17198923	     83.70163427	   -187.36131313	   -147.15561511	   -167.43525890	     91.41376585	     80.58142524
      5.11666670	    -10.46576934	     -1.57626133	     -1.56524197	      0.37208649	      0.95212438	      0.02207625	     36.76404914	     -8.47298432	    -17.13941669	     45.70650293	      0.79772897	     19.24195801	    -19.27314893	     -7.49999987	     37.41564863	    -17.85678229	    -20.05300490	     49.83566618	      0.86979646	      7.10896235	    -25.33629266	     -7.49999987	    -31.51860219	      0.91245755	     -2.44821191	    359.58888927	    -15.65044273	    357.51093188	     81.96959848	     82.97333960	   -186.12583629	   -146.68844875	   -167.06990068	     91.95018717	     79.91881455
      5.12083330	    -10.90343228	     -1.90006057	     -1.45015731	      0.36930802	      0.94363205	      0.02666064	     39.82986459	     -8.52452139	    -16.60312132	     49.76738755	      0.86860477	     19.14065206	    -20.99529793	     -7.49999987	     39.38261127	    -18.48580310	    -18.84820147	     52.01837534	      0.90789192	      8.50602258	    -25.80480493	     -7.49999987	    -31.99066751	      1.01451690	     -2.41244304	    360.22767097	    -15.27400103	    357.53091521	     82.19886562	     83.50834927	   -185.35721131	   -146.21362137	   -167.53283129	     92.39268957	     80.41231677
      5.12500000	    -11.05440244	     -1.94308589	     -1.28162603	      0.37067708	      0.93565352	      0.02386401	     42.05802512	     -9.01883762	    -16.21661961	     53.16781346	      0.92795340	     18.99830687	    -22.15672829	     -7.49999987	     40.67330434	    -18.62388251	    -17.99178604	     53.82227567	      0.93937592	      9.96148599	    -26.14044476	     -7.49999987	    -32.46241697	      1.01100542	     -2.49661246	    360.86454942	    -14.96610092	    357.57296752	     81.91770433	     83.95099258	   -184.42850692	   -145.89891898	   -167.60917874	     92.36686494	     80.83897998
